<mxfile host="app.diagrams.net" agent="Mozilla/5.0 (Windows NT 10.0; Win64; x64) AppleWebKit/537.36 (KHTML, like Gecko) Chrome/140.0.0.0 Safari/537.36" version="28.2.3">
  <diagram name="PÃ¡gina-1" id="cnIFtuz8EK1eXhaaNWIq">
    <mxGraphModel dx="1105" dy="473" grid="1" gridSize="10" guides="1" tooltips="1" connect="1" arrows="1" fold="1" page="1" pageScale="1" pageWidth="827" pageHeight="1169" math="0" shadow="0">
      <root>
        <mxCell id="0" />
        <mxCell id="1" parent="0" />
        <mxCell id="kZis7W0_5P2IjQaN0d2r-11" style="edgeStyle=none;shape=connector;rounded=0;orthogonalLoop=1;jettySize=auto;html=1;exitX=0.5;exitY=0;exitDx=0;exitDy=0;entryX=0.5;entryY=1;entryDx=0;entryDy=0;strokeColor=default;align=center;verticalAlign=middle;fontFamily=Helvetica;fontSize=11;fontColor=default;labelBackgroundColor=default;endArrow=none;" edge="1" parent="1" source="kZis7W0_5P2IjQaN0d2r-2" target="kZis7W0_5P2IjQaN0d2r-10">
          <mxGeometry relative="1" as="geometry" />
        </mxCell>
        <mxCell id="kZis7W0_5P2IjQaN0d2r-2" value="Habitante" style="whiteSpace=wrap;html=1;align=center;" vertex="1" parent="1">
          <mxGeometry x="110" y="180" width="100" height="40" as="geometry" />
        </mxCell>
        <mxCell id="kZis7W0_5P2IjQaN0d2r-6" style="edgeStyle=none;shape=connector;rounded=0;orthogonalLoop=1;jettySize=auto;html=1;exitX=0.5;exitY=1;exitDx=0;exitDy=0;entryX=0.5;entryY=0;entryDx=0;entryDy=0;strokeColor=default;align=center;verticalAlign=middle;fontFamily=Helvetica;fontSize=11;fontColor=default;labelBackgroundColor=default;endArrow=none;" edge="1" parent="1" source="kZis7W0_5P2IjQaN0d2r-3" target="kZis7W0_5P2IjQaN0d2r-2">
          <mxGeometry relative="1" as="geometry" />
        </mxCell>
        <mxCell id="kZis7W0_5P2IjQaN0d2r-3" value="tipo" style="ellipse;whiteSpace=wrap;html=1;align=center;" vertex="1" parent="1">
          <mxGeometry x="60" y="60" width="70" height="40" as="geometry" />
        </mxCell>
        <mxCell id="kZis7W0_5P2IjQaN0d2r-9" style="edgeStyle=none;shape=connector;rounded=0;orthogonalLoop=1;jettySize=auto;html=1;exitX=0.5;exitY=1;exitDx=0;exitDy=0;entryX=0.5;entryY=0;entryDx=0;entryDy=0;strokeColor=default;align=center;verticalAlign=middle;fontFamily=Helvetica;fontSize=11;fontColor=default;labelBackgroundColor=default;endArrow=none;" edge="1" parent="1" source="kZis7W0_5P2IjQaN0d2r-7" target="kZis7W0_5P2IjQaN0d2r-2">
          <mxGeometry relative="1" as="geometry" />
        </mxCell>
        <mxCell id="kZis7W0_5P2IjQaN0d2r-7" value="dni" style="ellipse;whiteSpace=wrap;html=1;align=center;fontStyle=4;fontFamily=Helvetica;fontSize=11;fontColor=default;labelBackgroundColor=default;" vertex="1" parent="1">
          <mxGeometry x="20" y="110" width="70" height="30" as="geometry" />
        </mxCell>
        <mxCell id="kZis7W0_5P2IjQaN0d2r-10" value="nombre" style="ellipse;whiteSpace=wrap;html=1;align=center;" vertex="1" parent="1">
          <mxGeometry x="125" y="40" width="70" height="40" as="geometry" />
        </mxCell>
        <mxCell id="kZis7W0_5P2IjQaN0d2r-13" style="edgeStyle=none;shape=connector;rounded=0;orthogonalLoop=1;jettySize=auto;html=1;exitX=0.5;exitY=1;exitDx=0;exitDy=0;entryX=0.5;entryY=0;entryDx=0;entryDy=0;strokeColor=default;align=center;verticalAlign=middle;fontFamily=Helvetica;fontSize=11;fontColor=default;labelBackgroundColor=default;endArrow=none;" edge="1" parent="1" source="kZis7W0_5P2IjQaN0d2r-12" target="kZis7W0_5P2IjQaN0d2r-2">
          <mxGeometry relative="1" as="geometry" />
        </mxCell>
        <mxCell id="kZis7W0_5P2IjQaN0d2r-12" value="edad" style="ellipse;whiteSpace=wrap;html=1;align=center;dashed=1;fontFamily=Helvetica;fontSize=11;fontColor=default;labelBackgroundColor=default;" vertex="1" parent="1">
          <mxGeometry x="320" y="110" width="65" height="30" as="geometry" />
        </mxCell>
        <mxCell id="kZis7W0_5P2IjQaN0d2r-16" style="edgeStyle=none;shape=connector;rounded=0;orthogonalLoop=1;jettySize=auto;html=1;exitX=0.5;exitY=1;exitDx=0;exitDy=0;strokeColor=default;align=center;verticalAlign=middle;fontFamily=Helvetica;fontSize=11;fontColor=default;labelBackgroundColor=default;endArrow=none;" edge="1" parent="1" source="kZis7W0_5P2IjQaN0d2r-15">
          <mxGeometry relative="1" as="geometry">
            <mxPoint x="160" y="180" as="targetPoint" />
          </mxGeometry>
        </mxCell>
        <mxCell id="kZis7W0_5P2IjQaN0d2r-15" value="fechaDeNacimiento" style="ellipse;whiteSpace=wrap;html=1;align=center;" vertex="1" parent="1">
          <mxGeometry x="260" y="60" width="110" height="40" as="geometry" />
        </mxCell>
        <mxCell id="kZis7W0_5P2IjQaN0d2r-18" style="edgeStyle=none;shape=connector;rounded=0;orthogonalLoop=1;jettySize=auto;html=1;exitX=0.5;exitY=1;exitDx=0;exitDy=0;strokeColor=default;align=center;verticalAlign=middle;fontFamily=Helvetica;fontSize=11;fontColor=default;labelBackgroundColor=default;endArrow=none;" edge="1" parent="1" source="kZis7W0_5P2IjQaN0d2r-17">
          <mxGeometry relative="1" as="geometry">
            <mxPoint x="160" y="180" as="targetPoint" />
          </mxGeometry>
        </mxCell>
        <mxCell id="kZis7W0_5P2IjQaN0d2r-17" value="apellido" style="ellipse;whiteSpace=wrap;html=1;align=center;" vertex="1" parent="1">
          <mxGeometry x="200" y="40" width="60" height="40" as="geometry" />
        </mxCell>
      </root>
    </mxGraphModel>
  </diagram>
</mxfile>
